Coordinates
version=1
nRows=11
nColumns=40
inDegrees=yes

Units are S.I. units (second, meters, Newtons, ...)
If the header above contains a line with 'inDegrees', this indicates whether rotational values are in degrees (yes) or radians (no).

endheader
time	pelvis_tilt	pelvis_list	pelvis_rotation	pelvis_tx	pelvis_ty	pelvis_tz	hip_flexion_r	hip_adduction_r	hip_rotation_r	knee_angle_r	knee_angle_r_beta	ankle_angle_r	subtalar_angle_r	mtp_angle_r	hip_flexion_l	hip_adduction_l	hip_rotation_l	knee_angle_l	knee_angle_l_beta	ankle_angle_l	subtalar_angle_l	mtp_angle_l	lumbar_extension	lumbar_bending	lumbar_rotation	arm_flex_r	arm_add_r	arm_rot_r	elbow_flex_r	pro_sup_r	wrist_flex_r	wrist_dev_r	arm_flex_l	arm_add_l	arm_rot_l	elbow_flex_l	pro_sup_l	wrist_flex_l	wrist_dev_l
      1.80500000	    -12.88566742	     -3.50039149	     -0.22860803	      0.15096564	      0.54957461	     -1.21724440	     84.82397994	    -45.75914642	      1.15989996	    105.26452760	      1.83721259	     25.90617937	      5.76821774	      0.00000000	     94.32942347	    -44.34428525	     11.04738770	    106.87549119	      1.86532921	     26.34313240	     11.31825517	      0.00000000	      0.00000000	      0.00000000	      0.00000000	     44.99992434	    -14.99999999	     44.99992434	     75.00017585	     45.00000026	      0.00000000	      0.00000000	     44.99992434	    -14.99999999	     44.99992434	     75.00017585	     45.00000026	      0.00000000	      0.00000000
      1.81000000	    -13.16195557	     -3.41919680	     -0.26030675	      0.15073842	      0.55380357	     -1.21698313	     84.40199102	    -45.61700835	      0.54377258	    104.53742995	      1.82452234	     25.62062091	      5.41851405	      0.00000000	     93.73062911	    -44.36503263	     10.23097155	    106.11728227	      1.85209597	     26.05414298	     11.07348953	      0.00000000	      0.00000000	      0.00000000	      0.00000000	     44.99992434	    -14.99999999	     44.99992434	     75.00017585	     45.00000026	      0.00000000	      0.00000000	     44.99992434	    -14.99999999	     44.99992434	     75.00017585	     45.00000026	      0.00000000	      0.00000000
      1.81500000	    -13.78693808	     -3.36115693	     -0.28210524	      0.15062878	      0.55672443	     -1.21669940	     84.46288151	    -45.52523180	      0.02963893	    103.93529908	      1.81401318	     25.53807830	      5.47441045	      0.00000000	     93.70291060	    -44.32411047	      9.64721040	    105.47976551	      1.84096920	     25.84963496	     11.18036175	      0.00000000	      0.00000000	      0.00000000	      0.00000000	     44.99992434	    -14.99999999	     44.99992434	     75.00017585	     45.00000026	      0.00000000	      0.00000000	     44.99992434	    -14.99999999	     44.99992434	     75.00017585	     45.00000026	      0.00000000	      0.00000000
      1.82000000	    -13.94507893	     -3.28035762	     -0.34089675	      0.15022916	      0.56143345	     -1.21645676	     83.90232067	    -45.30899904	     -0.58889538	    103.13112107	      1.79997762	     25.00647917	      5.00182353	      0.00000000	     92.93389425	    -44.34376540	      8.78085897	    104.67066212	      1.82684768	     25.39865565	     10.66514063	      0.00000000	      0.00000000	      0.00000000	      0.00000000	     44.99992434	    -14.99999999	     44.99992434	     75.00017585	     45.00000026	      0.00000000	      0.00000000	     44.99992434	    -14.99999999	     44.99992434	     75.00017585	     45.00000026	      0.00000000	      0.00000000
      1.82500000	    -13.87418282	     -3.15433258	     -0.41225754	      0.15034667	      0.56669442	     -1.21600128	     83.01644086	    -45.13642575	     -1.21136199	    102.33102406	      1.78601330	     24.91368395	      4.91984123	      0.00000000	     91.76318324	    -44.52560085	      7.78505860	    103.82718808	      1.81212629	     25.28887035	     10.78607324	      0.00000000	      0.00000000	      0.00000000	      0.00000000	     44.99992434	    -14.99999999	     44.99992434	     75.00017585	     45.00000026	      0.00000000	      0.00000000	     44.99992434	    -14.99999999	     44.99992434	     75.00017585	     45.00000026	      0.00000000	      0.00000000
      1.83000000	    -14.51464084	     -3.10472912	     -0.42651111	      0.15027219	      0.56950669	     -1.21569174	     83.10850949	    -45.03619463	     -1.71012531	    101.74986732	      1.77587020	     24.84510623	      4.96246892	      0.00000000	     91.76898196	    -44.45928570	      7.23301041	    103.17977439	      1.80082678	     25.08593577	     10.87873037	      0.00000000	      0.00000000	      0.00000000	      0.00000000	     44.99992434	    -14.99999999	     44.99992434	     75.00017585	     45.00000026	      0.00000000	      0.00000000	     44.99992434	    -14.99999999	     44.99992434	     75.00017585	     45.00000026	      0.00000000	      0.00000000
      1.83500000	    -14.34173139	     -2.98116506	     -0.51859418	      0.15013991	      0.57527891	     -1.21528040	     82.10476076	    -44.77588903	     -2.34173196	    100.83933153	      1.75997835	     24.37264252	      4.55737226	      0.00000000	     90.43869608	    -44.59006463	      6.18366309	    102.26085749	      1.78478866	     24.73607308	     10.54978010	      0.00000000	      0.00000000	      0.00000000	      0.00000000	     44.99992434	    -14.99999999	     44.99992434	     75.00017585	     45.00000026	      0.00000000	      0.00000000	     44.99992434	    -14.99999999	     44.99992434	     75.00017585	     45.00000026	      0.00000000	      0.00000000
      1.84000000	    -14.96666714	     -2.92925513	     -0.53392896	      0.15004852	      0.57808982	     -1.21503140	     82.18159814	    -44.64782668	     -2.80517380	    100.23335554	      1.74940207	     24.31720534	      4.57220947	      0.00000000	     90.42714375	    -44.48721588	      5.65944830	    101.62242969	      1.77364599	     24.52943986	     10.62509784	      0.00000000	      0.00000000	      0.00000000	      0.00000000	     44.99992434	    -14.99999999	     44.99992434	     75.00017585	     45.00000026	      0.00000000	      0.00000000	     44.99992434	    -14.99999999	     44.99992434	     75.00017585	     45.00000026	      0.00000000	      0.00000000
      1.84500000	    -15.53871802	     -2.87576596	     -0.55632990	      0.14983958	      0.58123833	     -1.21477738	     82.17180157	    -44.47320182	     -3.27697545	     99.55189541	      1.73750835	     24.14051670	      4.51141669	      0.00000000	     90.30667164	    -44.36421782	      5.10475998	    100.91943514	      1.76137642	     24.24826361	     10.59233022	      0.00000000	      0.00000000	      0.00000000	      0.00000000	     44.99992434	    -14.99999999	     44.99992434	     75.00017585	     45.00000026	      0.00000000	      0.00000000	     44.99992434	    -14.99999999	     44.99992434	     75.00017585	     45.00000026	      0.00000000	      0.00000000
      1.85000000	    -14.98801890	     -2.71924910	     -0.68657001	      0.14992461	      0.58810202	     -1.21422474	     80.70347379	    -44.16118463	     -3.93082016	     98.57137147	      1.72039498	     23.65129813	      3.94607037	      0.00000000	     88.39759794	    -44.60678585	      3.84621292	     99.91508102	      1.74384714	     23.93505844	     10.20578312	      0.00000000	      0.00000000	      0.00000000	      0.00000000	     44.99992434	    -14.99999999	     44.99992434	     75.00017585	     45.00000026	      0.00000000	      0.00000000	     44.99992434	    -14.99999999	     44.99992434	     75.00017585	     45.00000026	      0.00000000	      0.00000000
      1.85500000	    -15.61247250	     -2.66433193	     -0.70356167	      0.14987039	      0.59088433	     -1.21388996	     80.79678553	    -44.03329491	     -4.39103164	     97.96977685	      1.70989517	     23.58745372	      3.97982087	      0.00000000	     88.38884832	    -44.49375162	      3.34582281	     99.25329421	      1.73229678	     23.73082000	     10.28743445	      0.00000000	      0.00000000	      0.00000000	      0.00000000	     44.99992434	    -14.99999999	     44.99992434	     75.00017585	     45.00000026	      0.00000000	      0.00000000	     44.99992434	    -14.99999999	     44.99992434	     75.00017585	     45.00000026	      0.00000000	      0.00000000
